<svg xmlns="http://www.w3.org/2000/svg" width="24" height="24" fill="none"><path stroke="#111" stroke-linecap="round" stroke-linejoin="round" stroke-width="2" d="M17.833 10.833v-3.5a5.833 5.833 0 1 0-11.666 0v3.5M7.1 22.5h9.8c1.96 0 2.94 0 3.689-.381a3.5 3.5 0 0 0 1.53-1.53c.381-.749.381-1.729.381-3.689v-.467c0-1.96 0-2.94-.381-3.689a3.5 3.5 0 0 0-1.53-1.53c-.749-.38-1.729-.38-3.689-.38H7.1c-1.96 0-2.94 0-3.689.38a3.5 3.5 0 0 0-1.53 1.53c-.381.75-.381 1.73-.381 3.69v.466c0 1.96 0 2.94.381 3.689a3.5 3.5 0 0 0 1.53 1.53c.749.381 1.729.381 3.689.381Z"/></svg>