<svg width="86" height="28" viewBox="0 0 86 28" fill="none" xmlns="http://www.w3.org/2000/svg">
<g clip-path="url(#clip0_0_1138)">
<path d="M0 1.5L12.7679 14.1339L25 26.5V1.5H0Z" fill="#F6F6F6"/>
<path d="M3.48218 4.80359L12.8125 14.0447L21.6072 23.0179H3.48218V4.80359Z" fill="#F6F6F6"/>
<path d="M21.6663 23.0768L12.3359 13.8357L3.54126 4.86249H21.6663V23.0768Z" fill="#4F2EE8"/>
<path d="M7.23218 8.55359L12.1875 13.5089L17.8572 19.1786H7.23218V8.55359Z" fill="#4F2EE8"/>
<path d="M7.23218 8.55359L12.1875 13.5089L17.8572 19.1786V8.55359H7.23218Z" fill="#F6F6F6"/>
</g>
<path d="M45.8422 9.69178C45.8422 7.0137 43.817 5.5 40.3146 5.5H33V22.1507H40.7196C44.2459 22.1507 46.5093 20.4973 46.5093 17.2836C46.5093 14.7918 44.9845 13.511 43.1975 13.2082V13.1616C44.6033 12.6959 45.8422 11.7411 45.8422 9.69178ZM35.8353 12.3932V7.85206H40.3861C42.0777 7.85206 43.0069 8.66712 43.0069 10.1342C43.0069 11.6014 42.2445 12.3932 40.2193 12.3932H35.8353ZM35.8353 14.4658H40.8149C42.6019 14.4658 43.674 15.4205 43.674 17.1205C43.674 18.6808 42.9354 19.7986 40.5052 19.7986H35.8353V14.4658Z" fill="#F3F3F3"/>
<path d="M53.7839 22.5C49.9717 22.5 47.6606 19.9151 47.6606 16.2123C47.6606 12.5096 49.9717 9.92466 53.7839 9.92466C57.5961 9.92466 59.9072 12.5096 59.9072 16.2123C59.9072 19.9151 57.5961 22.5 53.7839 22.5ZM53.7839 20.4973C56.1665 20.4973 57.4055 18.6575 57.4055 16.2123C57.4055 13.7438 56.1665 11.9274 53.7839 11.9274C51.4013 11.9274 50.1623 13.7438 50.1623 16.2123C50.1623 18.6575 51.4013 20.4973 53.7839 20.4973Z" fill="#F3F3F3"/>
<path d="M67.1162 22.5C63.3041 22.5 60.9929 19.9151 60.9929 16.2123C60.9929 12.5096 63.3041 9.92466 67.1162 9.92466C70.9284 9.92466 73.2395 12.5096 73.2395 16.2123C73.2395 19.9151 70.9284 22.5 67.1162 22.5ZM67.1162 20.4973C69.4988 20.4973 70.7378 18.6575 70.7378 16.2123C70.7378 13.7438 69.4988 11.9274 67.1162 11.9274C64.7336 11.9274 63.4947 13.7438 63.4947 16.2123C63.4947 18.6575 64.7336 20.4973 67.1162 20.4973Z" fill="#F3F3F3"/>
<path d="M74.9686 5.5V22.1507H77.4703V17.8425L79.1619 16.2822L82.9979 22.1507H86L80.8774 14.6753L85.4997 10.2507H82.4261L77.4703 15.0247V5.5H74.9686Z" fill="#F3F3F3"/>
<defs>
<clipPath id="clip0_0_1138">
<rect width="25" height="25" fill="white" transform="translate(0 1.5)"/>
</clipPath>
</defs>
</svg>
