<svg aria-hidden="true" style="position: absolute; width: 0; height: 0; overflow: hidden;" version="1.1" xmlns="http://www.w3.org/2000/svg" xmlns:xlink="http://www.w3.org/1999/xlink">
<defs>
<symbol id="icon-burger" viewBox="0 0 32 32">
<path stroke-linejoin="round" stroke-linecap="round" stroke-miterlimit="4" stroke-width="2.2857" d="M22.666 13.334h-18.666M28 8h-24M28 18.666h-24M22.666 24h-18.666"></path>
</symbol>
<symbol id="icon-arrow-right" viewBox="0 0 32 32">
<path fill="none" stroke="#eac645" style="stroke: var(--color1, #eac645)" stroke-linejoin="round" stroke-linecap="round" stroke-miterlimit="4" stroke-width="3.2" d="M5.333 16h21.334M26.667 16l-8-8M26.667 16l-8 8"></path>
</symbol>
<symbol id="icon-logo-dark" viewBox="0 0 98 32">
<path fill="#f6f6f6" style="fill: var(--color2, #f6f6f6)" d="M0 1.714l14.592 14.439 13.979 14.133v-28.571h-28.571z"></path>
<path fill="#f6f6f6" style="fill: var(--color2, #f6f6f6)" d="M3.979 5.49l10.663 10.56 10.051 10.256h-20.714v-20.816z"></path>
<path fill="#4f2ee8" style="fill: var(--color3, #4f2ee8)" d="M24.761 26.374l-10.663-10.561-10.053-10.256h20.714v20.817z"></path>
<path fill="#4f2ee8" style="fill: var(--color3, #4f2ee8)" d="M8.265 9.776l12.143 12.143h-12.143v-12.143z"></path>
<path fill="#f6f6f6" style="fill: var(--color2, #f6f6f6)" d="M8.265 9.776l12.143 12.143v-12.143h-12.143z"></path>
<path fill="#f3f3f3" style="fill: var(--color4, #f3f3f3)" d="M52.391 11.077c0-3.061-2.314-4.791-6.317-4.791h-8.36v19.029h8.823c4.030 0 6.617-1.889 6.617-5.561 0-2.848-1.744-4.312-3.786-4.658v-0.053c1.607-0.533 3.023-1.623 3.023-3.966zM40.954 14.163v-5.189h5.201c1.934 0 2.994 0.93 2.994 2.607s-0.87 2.583-3.185 2.583h-5.010zM40.954 16.533h5.691c2.042 0 3.267 1.091 3.267 3.034 0 1.783-0.845 3.061-3.622 3.061h-5.337v-6.095zM61.467 25.714c-4.357 0-6.998-2.954-6.998-7.186 0-4.231 2.64-7.185 6.998-7.185 4.357 0 6.998 2.954 6.998 7.185 0 4.232-2.64 7.186-6.998 7.186zM61.467 23.425c2.723 0 4.139-2.103 4.139-4.897 0-2.821-1.417-4.897-4.139-4.897-2.723 0-4.139 2.077-4.139 4.897 0 2.794 1.417 4.897 4.139 4.897zM76.704 25.714c-4.357 0-6.998-2.954-6.998-7.186 0-4.231 2.641-7.185 6.998-7.185s6.999 2.954 6.999 7.185c0 4.232-2.642 7.186-6.999 7.186zM76.704 23.425c2.723 0 4.139-2.103 4.139-4.897 0-2.821-1.417-4.897-4.139-4.897s-4.138 2.077-4.138 4.897c0 2.794 1.416 4.897 4.138 4.897zM85.679 6.286v19.029h2.858v-4.922l1.934-1.783 4.384 6.706h3.431l-5.855-8.544 5.283-5.056h-3.513l-5.664 5.456v-10.886h-2.857z"></path>
</symbol>
<symbol id="icon-logo-light" viewBox="0 0 98 32">
<path fill="#f6f6f6" style="fill: var(--color2, #f6f6f6)" d="M0 1.714l14.592 14.439 13.979 14.133v-28.571h-28.571z"></path>
<path fill="#f6f6f6" style="fill: var(--color2, #f6f6f6)" d="M3.979 5.49l10.663 10.56 10.051 10.256h-20.714v-20.816z"></path>
<path fill="#4f2ee8" style="fill: var(--color3, #4f2ee8)" d="M24.761 26.374l-10.663-10.561-10.050-10.256h20.714v20.817z"></path>
<path fill="#4f2ee8" style="fill: var(--color3, #4f2ee8)" d="M8.265 9.776l12.143 12.143h-12.143v-12.143z"></path>
<path fill="#f6f6f6" style="fill: var(--color2, #f6f6f6)" d="M8.265 9.776l12.143 12.143v-12.143h-12.143z"></path>
<path fill="#000" style="fill: var(--color5, #000)" d="M52.391 11.077c0-3.061-2.314-4.791-6.317-4.791h-8.36v19.029h8.823c4.030 0 6.617-1.889 6.617-5.561 0-2.848-1.744-4.312-3.786-4.658v-0.053c1.607-0.533 3.023-1.623 3.023-3.966zM40.954 14.163v-5.189h5.201c1.934 0 2.994 0.93 2.994 2.607s-0.87 2.583-3.185 2.583h-5.010zM40.954 16.533h5.691c2.042 0 3.267 1.091 3.267 3.034 0 1.783-0.845 3.061-3.622 3.061h-5.337v-6.095zM61.467 25.714c-4.357 0-6.998-2.954-6.998-7.186 0-4.231 2.64-7.185 6.998-7.185 4.357 0 6.998 2.954 6.998 7.185 0 4.232-2.64 7.186-6.998 7.186zM61.467 23.425c2.723 0 4.139-2.103 4.139-4.897 0-2.821-1.417-4.897-4.139-4.897-2.723 0-4.139 2.077-4.139 4.897 0 2.794 1.417 4.897 4.139 4.897zM76.704 25.714c-4.357 0-6.998-2.954-6.998-7.186 0-4.231 2.641-7.185 6.998-7.185s6.999 2.954 6.999 7.185c0 4.232-2.642 7.186-6.999 7.186zM76.704 23.425c2.723 0 4.139-2.103 4.139-4.897 0-2.821-1.417-4.897-4.139-4.897s-4.138 2.077-4.138 4.897c0 2.794 1.416 4.897 4.138 4.897zM85.679 6.286v19.029h2.858v-4.922l1.934-1.783 4.384 6.706h3.431l-5.855-8.544 5.283-5.056h-3.513l-5.664 5.456v-10.886h-2.857z"></path>
</symbol>
<symbol id="icon-uil_cart" viewBox="0 0 32 32">
<path d="M25.333 9.333h-4v-1.333c0-2.945-2.388-5.333-5.333-5.333s-5.333 2.388-5.333 5.333v0 1.333h-4c-0 0-0.001 0-0.002 0-0.736 0-1.333 0.597-1.333 1.333 0 0.001 0 0.001 0 0.002v-0 14.666c0 2.209 1.791 4 4 4v0h13.334c2.209 0 4-1.791 4-4v0-14.666c0-0 0-0.001 0-0.002 0-0.736-0.597-1.333-1.333-1.333-0.001 0-0.001 0-0.002 0h0zM13.333 8c0-1.473 1.194-2.667 2.667-2.667s2.667 1.194 2.667 2.667v1.333h-5.334v-1.333zM24 25.333c0 0 0 0.001 0 0.002 0 0.736-0.597 1.333-1.333 1.333h-13.334c-0.736 0-1.333-0.597-1.333-1.333 0-0.001 0-0.001 0-0.002v0-13.333h2.667v1.333c0 0.736 0.597 1.333 1.333 1.333s1.333-0.597 1.333-1.333v0-1.333h5.334v1.333c0.036 0.708 0.619 1.269 1.333 1.269s1.297-0.561 1.333-1.266l0-0.003v-1.333h2.667v13.333z"></path>
</symbol>
<symbol id="icon-x-close" viewBox="0 0 32 32">
<path stroke-linejoin="round" stroke-linecap="round" stroke-miterlimit="4" stroke-width="3.4286" d="M24 8l-16 16M8 8l16 16"></path>
</symbol>
</defs>
</svg>
