<svg width="19" height="11" viewBox="0 0 19 11" fill="none" xmlns="http://www.w3.org/2000/svg">
<path d="M0.374949 8.7L8.77495 0.275C8.87495 0.175 8.98328 0.104333 9.09995 0.063C9.21662 0.021 9.34162 0 9.47495 0C9.60828 0 9.73328 0.021 9.84995 0.063C9.96662 0.104333 10.075 0.175 10.175 0.275L18.6 8.7C18.8333 8.93333 18.95 9.225 18.95 9.575C18.95 9.925 18.825 10.225 18.575 10.475C18.325 10.725 18.0333 10.85 17.7 10.85C17.3666 10.85 17.075 10.725 16.825 10.475L9.47495 3.125L2.12495 10.475C1.89161 10.7083 1.60428 10.825 1.26295 10.825C0.920948 10.825 0.624949 10.7 0.374949 10.45C0.124949 10.2 -5.14984e-05 9.90833 -5.14984e-05 9.575C-5.14984e-05 9.24167 0.124949 8.95 0.374949 8.7Z" fill="white"/>
</svg>
