<svg width="14" height="18" viewBox="0 0 14 18" fill="none" xmlns="http://www.w3.org/2000/svg">
<path d="M12.8333 4.83335H10.3333V4.00002C10.3333 3.11596 9.98213 2.26812 9.35701 1.643C8.73189 1.01788 7.88405 0.666687 6.99999 0.666687C6.11594 0.666687 5.26809 1.01788 4.64297 1.643C4.01785 2.26812 3.66666 3.11596 3.66666 4.00002V4.83335H1.16666C0.945648 4.83335 0.733686 4.92115 0.577406 5.07743C0.421126 5.23371 0.333328 5.44567 0.333328 5.66669V14.8334C0.333328 15.4964 0.59672 16.1323 1.06556 16.6011C1.5344 17.07 2.17029 17.3334 2.83333 17.3334H11.1667C11.8297 17.3334 12.4656 17.07 12.9344 16.6011C13.4033 16.1323 13.6667 15.4964 13.6667 14.8334V5.66669C13.6667 5.44567 13.5789 5.23371 13.4226 5.07743C13.2663 4.92115 13.0543 4.83335 12.8333 4.83335ZM5.33333 4.00002C5.33333 3.55799 5.50892 3.13407 5.82148 2.82151C6.13404 2.50895 6.55796 2.33335 6.99999 2.33335C7.44202 2.33335 7.86594 2.50895 8.1785 2.82151C8.49106 3.13407 8.66666 3.55799 8.66666 4.00002V4.83335H5.33333V4.00002ZM12 14.8334C12 15.0544 11.9122 15.2663 11.7559 15.4226C11.5996 15.5789 11.3877 15.6667 11.1667 15.6667H2.83333C2.61231 15.6667 2.40035 15.5789 2.24407 15.4226C2.08779 15.2663 1.99999 15.0544 1.99999 14.8334V6.50002H3.66666V7.33335C3.66666 7.55437 3.75446 7.76633 3.91074 7.92261C4.06702 8.07889 4.27898 8.16669 4.49999 8.16669C4.72101 8.16669 4.93297 8.07889 5.08925 7.92261C5.24553 7.76633 5.33333 7.55437 5.33333 7.33335V6.50002H8.66666V7.33335C8.66666 7.55437 8.75446 7.76633 8.91074 7.92261C9.06702 8.07889 9.27898 8.16669 9.49999 8.16669C9.72101 8.16669 9.93297 8.07889 10.0892 7.92261C10.2455 7.76633 10.3333 7.55437 10.3333 7.33335V6.50002H12V14.8334Z" fill="#111111"/>
</svg>
