<svg xmlns="http://www.w3.org/2000/svg" width="53" height="18" fill="none"><path fill="#000" d="M12.842 4.692C12.842 2.014 10.817.5 7.315.5H0v16.65h7.72c3.526 0 5.79-1.653 5.79-4.866 0-2.492-1.525-3.773-3.313-4.076v-.046c1.406-.466 2.645-1.42 2.645-3.47ZM2.835 7.393v-4.54h4.551c1.692 0 2.62.814 2.62 2.281s-.762 2.26-2.787 2.26H2.835Zm0 2.073h4.98c1.787 0 2.859.955 2.859 2.655 0 1.56-.739 2.678-3.169 2.678h-4.67V9.466ZM20.784 17.5c-3.812 0-6.123-2.585-6.123-6.288 0-3.702 2.31-6.287 6.123-6.287 3.812 0 6.123 2.585 6.123 6.287 0 3.703-2.31 6.288-6.123 6.288Zm0-2.003c2.383 0 3.622-1.84 3.622-4.285 0-2.468-1.24-4.285-3.622-4.285-2.383 0-3.622 1.817-3.622 4.285 0 2.446 1.24 4.285 3.622 4.285ZM34.116 17.5c-3.812 0-6.123-2.585-6.123-6.288 0-3.702 2.311-6.287 6.123-6.287 3.812 0 6.123 2.585 6.123 6.287 0 3.703-2.31 6.288-6.123 6.288Zm0-2.003c2.383 0 3.622-1.84 3.622-4.285 0-2.468-1.24-4.285-3.622-4.285-2.382 0-3.621 1.817-3.621 4.285 0 2.446 1.239 4.285 3.621 4.285ZM41.969.5v16.65h2.501v-4.307l1.692-1.56 3.836 5.868H53l-5.123-7.476L52.5 5.251h-3.074l-4.956 4.774V.5H41.97Z"/></svg>