<svg width="53" height="18" viewBox="0 0 53 18" fill="none" xmlns="http://www.w3.org/2000/svg">
<path d="M12.8422 4.69178C12.8422 2.0137 10.817 0.5 7.31458 0.5H0V17.1507H7.71962C11.2459 17.1507 13.5093 15.4973 13.5093 12.2836C13.5093 9.79178 11.9845 8.51096 10.1975 8.20822V8.16164C11.6033 7.69589 12.8422 6.7411 12.8422 4.69178ZM2.83529 7.39315V2.85206H7.38606C9.07771 2.85206 10.0069 3.66712 10.0069 5.13425C10.0069 6.60137 9.24449 7.39315 7.21928 7.39315H2.83529ZM2.83529 9.46575H7.81493C9.60188 9.46575 10.674 10.4205 10.674 12.1205C10.674 13.6808 9.93544 14.7986 7.50519 14.7986H2.83529V9.46575Z" fill="#F3F3F3"/>
<path d="M20.7839 17.5C16.9717 17.5 14.6606 14.9151 14.6606 11.2123C14.6606 7.50959 16.9717 4.92466 20.7839 4.92466C24.5961 4.92466 26.9072 7.50959 26.9072 11.2123C26.9072 14.9151 24.5961 17.5 20.7839 17.5ZM20.7839 15.4973C23.1665 15.4973 24.4055 13.6575 24.4055 11.2123C24.4055 8.74384 23.1665 6.9274 20.7839 6.9274C18.4013 6.9274 17.1623 8.74384 17.1623 11.2123C17.1623 13.6575 18.4013 15.4973 20.7839 15.4973Z" fill="#F3F3F3"/>
<path d="M34.1162 17.5C30.3041 17.5 27.9929 14.9151 27.9929 11.2123C27.9929 7.50959 30.3041 4.92466 34.1162 4.92466C37.9284 4.92466 40.2395 7.50959 40.2395 11.2123C40.2395 14.9151 37.9284 17.5 34.1162 17.5ZM34.1162 15.4973C36.4988 15.4973 37.7378 13.6575 37.7378 11.2123C37.7378 8.74384 36.4988 6.9274 34.1162 6.9274C31.7336 6.9274 30.4947 8.74384 30.4947 11.2123C30.4947 13.6575 31.7336 15.4973 34.1162 15.4973Z" fill="#F3F3F3"/>
<path d="M41.9686 0.5V17.1507H44.4703V12.8425L46.1619 11.2822L49.9979 17.1507H53L47.8774 9.67534L52.4997 5.25068H49.4261L44.4703 10.0247V0.5H41.9686Z" fill="#F3F3F3"/>
</svg>
